<svg xmlns="http://www.w3.org/2000/svg" viewBox="0 0 150 149.5">
<!-- SVG created with Arrow, by QuiverAI (https://quiver.ai) -->
  <style type="text/css">.cls-0 {fill:#18191B;}
.cls-1 {fill:#F4FBE3;}
.cls-2 {fill:#D9FF71;}
.cls-3 {fill:#E7FFB0;}
.cls-4 {fill:#F56600;}
.cls-5 {fill:#F4FBE7;}
.cls-6 {fill:#F4FBE6;}</style>
  <rect class="cls-1" x="1.9" y="109.4" width="12.8" height="4.3"/>
  <rect class="cls-1" x="14.7" y="104.8" width="11.9" height="4.4"/>
  <rect class="cls-1" x="26.8" y="100.3" width="24.6" height="4.5"/>
  <rect class="cls-1" x="51.3" y="104.8" width="4" height="4.3"/>
  <rect class="cls-1" x="55.3" y="109.4" width="12" height="4.3"/>
  <rect class="cls-1" x="67.3" y="113.9" width="20.2" height="4.3"/>
  <rect class="cls-1" x="91.7" y="109.4" width="10.8" height="4.3"/>
  <rect class="cls-1" x="102.7" y="104.8" width="11.7" height="4.3"/>
  <rect class="cls-1" x="114.9" y="100.3" width="12.4" height="4.5"/>
  <rect class="cls-1" x="127.2" y="104.8" width="8" height="4.3"/>
  <rect class="cls-1" x="135.6" y="109.4" width="13.3" height="4.3"/>
  <rect class="cls-1" x="102.7" y="113.9" width="16.1" height="4.3"/>
  <rect class="cls-2" x="1.9" y="122.2" width="12.8" height="4.3"/>
  <rect class="cls-2" x="14.7" y="117.9" width="16.1" height="4.3"/>
  <rect class="cls-3" x="26.8" y="113.9" width="7.9" height="4.3"/>
  <rect class="cls-2" x="38.9" y="117.9" width="8.1" height="4.2"/>
  <rect class="cls-2" x="47.1" y="113.9" width="20.3" height="4.3"/>
  <rect class="cls-2" x="71.3" y="117.9" width="16.1" height="4.3"/>
  <rect class="cls-2" x="91.7" y="113.9" width="10.9" height="4.3"/>
  <rect class="cls-2" x="106.7" y="117.9" width="7.7" height="4.2"/>
  <rect class="cls-3" x="118.8" y="113.9" width="4.1" height="4.3"/>
  <rect class="cls-2" x="135.6" y="117.9" width="13.5" height="4.3"/>
  <rect class="cls-2" x="59.4" y="122.2" width="15.9" height="4.3"/>
  <rect class="cls-2" x="87.6" y="122.2" width="15" height="4.3"/>
  <rect class="cls-2" x="118.7" y="122.2" width="16.8" height="4.3"/>
  <rect class="cls-2" x="102.7" y="126.4" width="20.4" height="4.3"/>
  <rect class="cls-3" x="135.6" y="130.8" width="3.8" height="4.3"/>
  <rect class="cls-1" x="47" y="126.4" width="16.3" height="4.4"/>
  <rect class="cls-1" x="26.8" y="130.8" width="20.4" height="4.4"/>
  <rect class="cls-3" x="79.2" y="126.4" width="12" height="4.3"/>
  <rect class="cls-1" x="91.7" y="130.8" width="14.8" height="4.3"/>
  <rect class="cls-2" x="87.6" y="135.2" width="31.6" height="4.3"/>
  <rect class="cls-3" x="118.8" y="135.2" width="8.4" height="4.3"/>
  <rect class="cls-2" x="127.2" y="139.2" width="8.2" height="4.3"/>
  <rect class="cls-3" x="102.7" y="139.2" width="3.8" height="4.3"/>
  <rect class="cls-2" x="75.4" y="139.2" width="11.9" height="4.3"/>
  <rect class="cls-3" x="63.3" y="135.2" width="11.9" height="4.3"/>
  <rect class="cls-2" x="51.2" y="139.2" width="12.1" height="4.3"/>
  <rect class="cls-3" x="46.9" y="143.6" width="4.1" height="4.3"/>
  <rect class="cls-2" x="7.2" y="139.2" width="7.6" height="4.3"/>
  <rect class="cls-2" x="18.7" y="135.2" width="24.7" height="4.3"/>
  <rect class="cls-2" x="46.9" y="130.8" width="16.4" height="4.4"/>
  <rect class="cls-3" x="75.4" y="130.8" width="3.9" height="4.3"/>
  <rect class="cls-2" x="26.8" y="104.8" width="24.6" height="4.4"/>
  <rect class="cls-2" x="14.7" y="109.4" width="11.9" height="4.3"/>
  <rect class="cls-3" x="87.6" y="113.9" width="4" height="4.3"/>
  <polygon class="cls-4" points="99.8 31.5 99.8 25.1 96.4 25.1 96.4 31.5 89.7 31.5 89.7 34.8 93.2 34.8 93.2 42.4 96.4 42.4 96.4 39.3 99.8 39.3 99.8 42.4 103.3 42.4 103.3 34.8 106.5 34.8 106.5 31.5"/>
  <polygon class="cls-1" points="34.8 11.1 34.8 8.9 32 8.9 32 11.1 29.4 11.1 29.4 13.8 32 13.8 32 16.4 34.7 16.4 34.7 13.8 37.3 13.8 37.3 11.1"/>
  <polygon class="cls-1" points="130.3 11.1 130.3 8.8 127.5 8.8 127.5 11.1 124.6 11.1 124.6 13.8 127.5 13.8 127.5 16.3 130.3 16.3 130.3 13.8 132.9 13.8 132.9 11.1"/>
  <polygon class="cls-1" points="135.5 65.6 135.5 63.3 133 63.3 133 65.6 130.4 65.6 130.4 68.2 133 68.2 133 70.8 135.6 70.8 135.6 68.2 138 68.2 138 65.6"/>
  <rect class="cls-1" x="17.6" y="30.5" width="2.6" height="2.7"/>
  <rect class="cls-1" x="8.4" y="55.5" width="2.6" height="2.7"/>
  <rect class="cls-1" x="15" y="81.4" width="2.6" height="2.7"/>
  <rect class="cls-1" x="17.6" y="84" width="2.6" height="2.7"/>
  <rect class="cls-1" x="43" y="65.6" width="2.7" height="2.6"/>
  <rect class="cls-1" x="67.3" y="8.8" width="2.6" height="2.6"/>
  <rect class="cls-1" x="106.7" y="1.7" width="2.6" height="2.6"/>
  <rect class="cls-1" x="138.5" y="33" width="2.6" height="2.7"/>
  <rect class="cls-1" x="139.3" y="86.5" width="2.5" height="2.6"/>
  <rect class="cls-1" x="81.3" y="93.6" width="2.7" height="2.6"/>
  <rect class="cls-1" x="111.6" y="60.8" width="2.5" height="2.7"/>
  <rect class="cls-1" x="88.7" y="73" width="2.6" height="2.7"/>
  <rect class="cls-5" x="68.5" y="70.8" width="2.6" height="2.5"/>
  <rect class="cls-6" x="71.1" y="68.1" width="2.6" height="2.5"/>
  <rect class="cls-5" x="56.7" y="42.2" width="2.6" height="2.6"/>
  <rect class="cls-6" x="59.4" y="39.6" width="2.6" height="2.6"/>
</svg>
